# xmcd CD database file
#
# Track frame offsets:
#	150
#	20795
#	39592
#
# Disc length: 865 seconds
#
# Revision: 0
# Processed by: cddbd v1.5PL3 Copyright (c) Steve Scherf et al.
# Submitted via: CDex 1.50
#
DISCID=20035f03
DTITLE=NOKKO - ライブがはねたら
DYEAR=1900
DGENRE=JPop
TTITLE0=ライブがはねたら（あいしてるversion）
TTITLE1=ライブがはねたら（だいすきversion）
TTITLE2=ライブがはねたら（いつもいっしょversion）
EXTD=
EXTT0=
EXTT1=
EXTT2=
PLAYORDER=
